<svg id="Layer_1" data-name="Layer 1" xmlns="http://www.w3.org/2000/svg" xmlns:xlink="http://www.w3.org/1999/xlink" viewBox="0 0 306 196.99"><defs><style>.cls-1,.cls-10,.cls-12{fill:none;}.cls-2{fill:#e9551d;}.cls-3{fill:#ef7c10;}.cls-4{fill:#f6a307;}.cls-5{fill:#b91d1b;}.cls-6{fill:#fff;}.cls-7{fill:#020203;}.cls-8{fill:#e22022;}.cls-9{clip-path:url(#clip-path);}.cls-10{stroke:#e22022;}.cls-10,.cls-12{stroke-miterlimit:10;stroke-width:0.03px;}.cls-11{fill:#0b6fb7;}.cls-12{stroke:#0b6fb7;}</style><clipPath id="clip-path" transform="translate(0 0.03)"><rect class="cls-1" x="205.36" y="4.68" width="100.64" height="187.61"/></clipPath></defs><path class="cls-2" d="M132.43,25a67.06,67.06,0,0,1,11.84,37,62.35,62.35,0,0,0-16.46-18.52,72.4,72.4,0,0,1,8.56,36.33A32.55,32.55,0,0,0,122.56,60c4.3,10.75,8.43,23.54,2.07,33.22a93.32,93.32,0,0,0-6-15,81.24,81.24,0,0,1-10.92,46,59.57,59.57,0,0,0-8.2-29.47,126.42,126.42,0,0,1-5.71,38.43A101.78,101.78,0,0,0,80.66,100a132.76,132.76,0,0,1-9.84,28.19,125.3,125.3,0,0,0-9.87-28c-5.64,9.15-4.66,20.73-3.44,31.38A90.38,90.38,0,0,1,45.87,79.8,34.75,34.75,0,0,0,37.8,98c-7.64-9.9-6.49-23.7-5-36.13A61.79,61.79,0,0,0,17,81.74C15.67,65,23.87,49.11,31.84,34.26A60.07,60.07,0,0,1,14.29,50.39,269.29,269.29,0,0,0,24.79,19a23.14,23.14,0,0,1-7.51,10.82,7.78,7.78,0,0,1-.53,2.07C12.16,42,.62,55.48,0,56.66c0,0,7.28-.82,12.33-5.51-7.81,14.92,5,42.72,11.21,49.74-1.18-3.18-.92-7.67,1.84-9.67-1.35,29.05,22.88,46,22.88,46s-3.32-6.56-.52-10.25c1.57,8,35.9,19.14,35.9,35.14,0-16.23,36.92-28,40.76-50.29.62,0,1.57,6.59-.33,9,17.58-10.33,29.18-43.12,27.9-52.6,2.76,3,4.37,9.78,4.37,9.78s10.59-24.5-.33-45.12C151.88,25,147.94,21.47,144.5,19c1.11,5,3.64,9.58,6.13,14.07A26.35,26.35,0,0,0,132.43,25Z" transform="translate(0 0.03)"/><path class="cls-3" d="M78.56,22C40.72,21.05,26.2,9.6,26.2,0,26.2,17.8,18,24,17.28,29.8A23.17,23.17,0,0,0,24.79,19a271.19,271.19,0,0,1-10.5,31.38A60.19,60.19,0,0,0,31.84,34.26C23.87,49.11,15.67,65,17,81.74A61.3,61.3,0,0,1,32.79,61.87c-1.48,12.43-2.59,26.26,5,36.23a34.73,34.73,0,0,1,8.15-18.2,90.44,90.44,0,0,0,11.61,51.84c-1.18-10.65-2.2-22.23,3.44-31.38a124.14,124.14,0,0,1,9.87,28,132.85,132.85,0,0,0,9.84-28.2,101.58,101.58,0,0,1,13.15,33.15,126.41,126.41,0,0,0,5.7-38.43,59.84,59.84,0,0,1,8.2,29.48,81.16,81.16,0,0,0,10.92-46,95.2,95.2,0,0,1,6,15c6.36-9.7,2.23-22.49-2.06-33.21A32.71,32.71,0,0,1,136.4,80a72.4,72.4,0,0,0-8.56-36.33A62.35,62.35,0,0,1,144.3,62.16a67.08,67.08,0,0,0-11.83-37,26.16,26.16,0,0,1,18.19,8.07c-2.49-4.49-5-9.08-6.13-14.07-5.54-3.93-9.93-5.44-12.43-19C132.07,9.6,116.43,22.88,78.56,22Z" transform="translate(0 0.03)"/><path class="cls-4" d="M57.94,28.19c-6.69,5.81-7.93,18.3-6.65,27a21.77,21.77,0,0,1,6.25-10.6c-1.67,5,.17,10.46,2.17,15.38,2.39,5.9,5.08,11.74,9,16.72a35.11,35.11,0,0,1,1.37-20.53c0,2.46,1.32,4.73,2.5,6.89a119.73,119.73,0,0,1,11.8,31.58C89.72,84,88,71.25,91.38,59.87,96.23,64.72,97.44,72,98.2,78.79a49.89,49.89,0,0,0,4.59-28.53A29,29,0,0,1,110.69,63a46.23,46.23,0,0,0-1-23.38c-1.48-4.75-4.07-9.6-8.63-11.74a18.64,18.64,0,0,0-5.54-1.44c-3.28-.46-6.59-.72-9.9-1a64.07,64.07,0,0,0-12.23-.1,21.66,21.66,0,0,0-11.25,4.36" transform="translate(0 0.03)"/><path class="cls-5" d="M58.94,27.08C57.05,44,93.28,54.82,102.4,28.52,105.22,20.39,59.38,22.75,58.94,27.08Z" transform="translate(0 0.03)"/><path class="cls-6" d="M61.74,33.31c0,2.66,37.25,1.77,37.18-.66,0-.52.26-6.13.3-6.75-10.46.56-28.36.29-37.51,3.08v4.33Z" transform="translate(0 0.03)"/><path class="cls-4" d="M80.3,20.33c6.59,6.85,41.41,8.06,50.3-2.53-6.07,5.08-14.14,4.56-16.89,3.54a7.66,7.66,0,0,0,5.64-5.9C104.17,30.75,99.71,4.49,80.5,18.52,64.63,7,54.2,23.34,42.1,17.67l5.15,3.67s-7.58,5-16.89-3.54a21.69,21.69,0,0,0,4.23,4.69C47.57,27,74.13,25.24,80.3,20.33Z" transform="translate(0 0.03)"/><path class="cls-2" d="M80.5,26.39c11.67,6.49,40.42,6.2,50.1-8.56h0c-8.89,10.56-43.71,9.35-50.3,2.5C74.13,25.24,47.57,27,34.59,22.49,46.69,32.56,70.2,32.13,80.5,26.39Z" transform="translate(0 0.03)"/><path class="cls-2" d="M84.46,156.63c-6.75,3.77-15.9,24.2,1.31,40.33-1.31-15.15,14.3-23.81-1.31-40.33" transform="translate(0 0.03)"/><path class="cls-3" d="M84.07,156.63c-3.31,3.77-6.72,24.2,1.74,40.33-.66-15.15,5.9-23.81-1.74-40.33" transform="translate(0 0.03)"/><path class="cls-7" d="M64.53,153.38c1.34-2.65,18.72,2.66,18.72,2.66s15.31-6.1,18.1-5.15,1.87,15.71,0,15.71-18.07-8.27-18.07-8.27-15.64,8.5-17.18,8.27S63.74,155,64.53,153.38Z" transform="translate(0 0.03)"/><path class="cls-8" d="M268.63,4.73a14.8,14.8,0,0,1,3.07,12.46c-.91,4.86-3.6,9.15-6.77,12.85a63.39,63.39,0,0,1-8.49,8.05c-3.54,2.85-7,5.92-9.24,9.93a12.93,12.93,0,0,0-1,10.8c2.1,6.08,7,10.59,9.65,16.32-2.95-2.6-5.83-5.29-8.52-8.14a38.93,38.93,0,0,1-7.24-10,11.91,11.91,0,0,1-.81-8.49c.9-2.85,2.94-5.14,5-7.27,5.67-5.67,12.65-9.83,18.2-15.6a23.15,23.15,0,0,0,6.48-11.31,22.72,22.72,0,0,0-.28-9.64Z" transform="translate(0 0.03)"/><g class="cls-9"><path class="cls-10" d="M268.63,4.73a14.8,14.8,0,0,1,3.07,12.46c-.91,4.86-3.6,9.15-6.77,12.85a63.39,63.39,0,0,1-8.49,8.05c-3.54,2.85-7,5.92-9.24,9.93a12.93,12.93,0,0,0-1,10.8c2.1,6.08,7,10.59,9.65,16.32-2.95-2.6-5.83-5.29-8.52-8.14a38.93,38.93,0,0,1-7.24-10,11.91,11.91,0,0,1-.81-8.49c.9-2.85,2.94-5.14,5-7.27,5.67-5.67,12.65-9.83,18.2-15.6a23.15,23.15,0,0,0,6.48-11.31,22.72,22.72,0,0,0-.28-9.64Z" transform="translate(0 0.03)"/></g><path class="cls-8" d="M264,40.41c6.08-4.48,13.19-7.33,20.39-9.4-5.7,3.63-11.65,7-16.57,11.62a15.55,15.55,0,0,0-4.26,6.11,7.82,7.82,0,0,0,.38,5.45c1.32,3,3.54,5.45,5.23,8.21a8.7,8.7,0,0,1,.6,7.89c-1.66,3.73-4.92,6.45-8.3,8.61-.44.25-.82.72-1.35.79,2.25-2,4-4.92,3.94-8a9.58,9.58,0,0,0-2.85-6c-3.1-3.69-5.7-8.39-5.16-13.37s4.1-9,7.95-11.87Z" transform="translate(0 0.03)"/><path class="cls-10" d="M264,40.41c6.08-4.48,13.19-7.33,20.39-9.4-5.7,3.63-11.65,7-16.57,11.62a15.55,15.55,0,0,0-4.26,6.11,7.82,7.82,0,0,0,.38,5.45c1.32,3,3.54,5.45,5.23,8.21a8.7,8.7,0,0,1,.6,7.89c-1.66,3.73-4.92,6.45-8.3,8.61-.44.25-.82.72-1.35.79,2.25-2,4-4.92,3.94-8a9.58,9.58,0,0,0-2.85-6c-3.1-3.69-5.7-8.39-5.16-13.37s4.1-9,7.95-11.87Z" transform="translate(0 0.03)"/><path class="cls-11" d="M285.54,76.62c1.32-1.6,3.42-2,5.33-2.26a11.63,11.63,0,0,1,9.36,2.7A8.48,8.48,0,0,1,303,84.57c-.47,3.23-2.63,5.92-5.07,8-4.42,3.54-9.87,5.61-15.32,7a4.69,4.69,0,0,1,1.07-.91c4.13-2.23,8.23-4.83,11.27-8.46,1.85-2.26,3.29-5.2,2.7-8.18a8,8,0,0,0-7.4-6.14c-1.63-.15-3.16.47-4.73.79Z" transform="translate(0 0.03)"/><path class="cls-12" d="M285.54,76.62c1.32-1.6,3.42-2,5.33-2.26a11.63,11.63,0,0,1,9.36,2.7A8.48,8.48,0,0,1,303,84.57c-.47,3.23-2.63,5.92-5.07,8-4.42,3.54-9.87,5.61-15.32,7a4.69,4.69,0,0,1,1.07-.91c4.13-2.23,8.23-4.83,11.27-8.46,1.85-2.26,3.29-5.2,2.7-8.18a8,8,0,0,0-7.4-6.14c-1.63-.15-3.16.47-4.73.79Z" transform="translate(0 0.03)"/><path class="cls-11" d="M222.58,79.47a45.15,45.15,0,0,1,18.33-4A71.37,71.37,0,0,0,230,79.09a5,5,0,0,0-2.23,1.69c-.25.66.44,1.1.94,1.32a23.39,23.39,0,0,0,6.77,1.22A187.51,187.51,0,0,0,259.58,83c7.89-.5,15.72-1.57,23.52-2.82A42.86,42.86,0,0,0,278,82.88a7.78,7.78,0,0,1-2.73.94,145.34,145.34,0,0,1-29.19,3c-3.79,0-7.55,0-11.31-.29a64.66,64.66,0,0,1-12.53-1.69,8.41,8.41,0,0,1-3.39-1.56,1.1,1.1,0,0,1-.06-1.57,12.69,12.69,0,0,1,3.76-2.19Z" transform="translate(0 0.03)"/><path class="cls-12" d="M222.58,79.47a45.15,45.15,0,0,1,18.33-4A71.37,71.37,0,0,0,230,79.09a5,5,0,0,0-2.23,1.69c-.25.66.44,1.1.94,1.32a23.39,23.39,0,0,0,6.77,1.22A187.51,187.51,0,0,0,259.58,83c7.89-.5,15.72-1.57,23.52-2.82A42.86,42.86,0,0,0,278,82.88a7.78,7.78,0,0,1-2.73.94,145.34,145.34,0,0,1-29.19,3c-3.79,0-7.55,0-11.31-.29a64.66,64.66,0,0,1-12.53-1.69,8.41,8.41,0,0,1-3.39-1.56,1.1,1.1,0,0,1-.06-1.57,12.69,12.69,0,0,1,3.76-2.19Z" transform="translate(0 0.03)"/><path class="cls-11" d="M230,92.84a18.87,18.87,0,0,1,5.52-2.69c-.63.75-1.51,1.47-1.57,2.51a1.78,1.78,0,0,0,1,1.47,10.16,10.16,0,0,0,3.36.87,105.86,105.86,0,0,0,18.16.57A133.91,133.91,0,0,0,273,93.41a18.33,18.33,0,0,0,5.17,3.22A98.93,98.93,0,0,1,258,100.24a86.44,86.44,0,0,1-19.42-.63,26.91,26.91,0,0,1-7.46-2.19,4.07,4.07,0,0,1-2.29-2.26A2.55,2.55,0,0,1,230,92.84Z" transform="translate(0 0.03)"/><path class="cls-12" d="M230,92.84a18.87,18.87,0,0,1,5.52-2.69c-.63.75-1.51,1.47-1.57,2.51a1.78,1.78,0,0,0,1,1.47,10.16,10.16,0,0,0,3.36.87,105.86,105.86,0,0,0,18.16.57A133.91,133.91,0,0,0,273,93.41a18.33,18.33,0,0,0,5.17,3.22A98.93,98.93,0,0,1,258,100.24a86.44,86.44,0,0,1-19.42-.63,26.91,26.91,0,0,1-7.46-2.19,4.07,4.07,0,0,1-2.29-2.26A2.55,2.55,0,0,1,230,92.84Z" transform="translate(0 0.03)"/><path class="cls-11" d="M233.61,106.5a13.71,13.71,0,0,1,5-2.25c-.57.53-1.57,1.19-1.13,2.09.85,1.1,2.41,1.23,3.67,1.51a80.32,80.32,0,0,0,15.94.69,106.59,106.59,0,0,0,11.87-1.66,59.22,59.22,0,0,0,7,3.44,52.09,52.09,0,0,1-11.65,3.48,61.63,61.63,0,0,1-20.37.28,28.37,28.37,0,0,1-8.7-2.69,5.28,5.28,0,0,1-2.57-2.45,2.24,2.24,0,0,1,.94-2.44Z" transform="translate(0 0.03)"/><path class="cls-12" d="M233.61,106.5a13.71,13.71,0,0,1,5-2.25c-.57.53-1.57,1.19-1.13,2.09.85,1.1,2.41,1.23,3.67,1.51a80.32,80.32,0,0,0,15.94.69,106.59,106.59,0,0,0,11.87-1.66,59.22,59.22,0,0,0,7,3.44,52.09,52.09,0,0,1-11.65,3.48,61.63,61.63,0,0,1-20.37.28,28.37,28.37,0,0,1-8.7-2.69,5.28,5.28,0,0,1-2.57-2.45,2.24,2.24,0,0,1,.94-2.44Z" transform="translate(0 0.03)"/><path class="cls-11" d="M216.22,115.37a30.64,30.64,0,0,1,8.9-1.85,6.6,6.6,0,0,1,3.54.65A26.84,26.84,0,0,0,218.13,117a3.48,3.48,0,0,0-1.81,1.73c0,1,1.09,1.28,1.81,1.59,4.55,1.69,9.4,2.23,14.16,2.73A245.22,245.22,0,0,0,275,122.6a97.69,97.69,0,0,0,15.94-2.66c1.66-.57,3.54-1.13,4.64-2.6a2.19,2.19,0,0,0-.44-2.73c1.06.6,2.57,1.35,2.35,2.79-.41,1.5-1.95,2.29-3.2,3a51,51,0,0,1-12.81,4,174.94,174.94,0,0,1-38.78,2.69,216.55,216.55,0,0,1-29.19-2.94c-1.73-.41-3.67-.76-4.92-2.1-.82-.94-.1-2.26.69-3a20.28,20.28,0,0,1,7-3.72Z" transform="translate(0 0.03)"/><path class="cls-12" d="M216.22,115.37a30.64,30.64,0,0,1,8.9-1.85,6.6,6.6,0,0,1,3.54.65A26.84,26.84,0,0,0,218.13,117a3.48,3.48,0,0,0-1.81,1.73c0,1,1.09,1.28,1.81,1.59,4.55,1.69,9.4,2.23,14.16,2.73A245.22,245.22,0,0,0,275,122.6a97.69,97.69,0,0,0,15.94-2.66c1.66-.57,3.54-1.13,4.64-2.6a2.19,2.19,0,0,0-.44-2.73c1.06.6,2.57,1.35,2.35,2.79-.41,1.5-1.95,2.29-3.2,3a51,51,0,0,1-12.81,4,174.94,174.94,0,0,1-38.78,2.69,216.55,216.55,0,0,1-29.19-2.94c-1.73-.41-3.67-.76-4.92-2.1-.82-.94-.1-2.26.69-3a20.28,20.28,0,0,1,7-3.72Z" transform="translate(0 0.03)"/><path class="cls-11" d="M294.28,126.08c3.17-1.1,6.55-2.26,8.9-4.76-.41,2.72-2.76,4.6-5.08,5.82-4.44,2.32-9.42,3.39-14.37,4.26a181.49,181.49,0,0,1-31.7,1.88c-7.24-.22-14.54-.5-21.65-2a16.39,16.39,0,0,1-5-1.79,149.92,149.92,0,0,0,19.17,1.76,206.51,206.51,0,0,0,31.64-1.41,108.64,108.64,0,0,0,18.07-3.76Z" transform="translate(0 0.03)"/><path class="cls-12" d="M294.28,126.08c3.17-1.1,6.55-2.26,8.9-4.76-.41,2.72-2.76,4.6-5.08,5.82-4.44,2.32-9.42,3.39-14.37,4.26a181.49,181.49,0,0,1-31.7,1.88c-7.24-.22-14.54-.5-21.65-2a16.39,16.39,0,0,1-5-1.79,149.92,149.92,0,0,0,19.17,1.76,206.51,206.51,0,0,0,31.64-1.41,108.64,108.64,0,0,0,18.07-3.76Z" transform="translate(0 0.03)"/><path class="cls-8" d="M211.74,172.53c0-10.27,0-20.55,0-30.85,2.13.06,4.26,0,6.39.06,0,11.5,0,23,0,34.55-.06,3.23-.12,6.61-1.69,9.49a15.45,15.45,0,0,1-8.05,6.49c-1-1.13-2-2.32-3-3.45h0c2.64-1.53,5.27-3.73,5.89-6.89s.41-6.26.47-9.4Z" transform="translate(0 0.03)"/><g class="cls-9"><path class="cls-10" d="M211.74,172.53c0-10.27,0-20.55,0-30.85,2.13.06,4.26,0,6.39.06,0,11.5,0,23,0,34.55-.06,3.23-.12,6.61-1.69,9.49a15.45,15.45,0,0,1-8.05,6.49c-1-1.13-2-2.32-3-3.45h0c2.64-1.53,5.27-3.73,5.89-6.89s.41-6.26.47-9.4Z" transform="translate(0 0.03)"/></g><path class="cls-8" d="M231.85,168.59a4.38,4.38,0,0,0-3,2.88,5.6,5.6,0,0,0,.73,4.82,4.7,4.7,0,0,0,4.38,1.44,11.79,11.79,0,0,0,5.8-2.85c0-2.35,0-4.67,0-7-2.64,0-5.33-.16-7.87.72Zm-7.77-14.54a27,27,0,0,1,13.54-2.25,9.44,9.44,0,0,1,6.39,3.07,9,9,0,0,1,1.72,5.76v21H241c-.16-1-.31-2.1-.44-3.17a16.15,16.15,0,0,1-5.92,3.32,12.77,12.77,0,0,1-7.8-.37,6.88,6.88,0,0,1-4-4.51,9.52,9.52,0,0,1,1.7-8.68,12.4,12.4,0,0,1,7.39-3.73,40,40,0,0,1,7.74-.5c-.07-2,.31-4.13-.82-5.89a5.2,5.2,0,0,0-4.1-2,24.13,24.13,0,0,0-9.84,1.66c-.31-1.25-.59-2.51-.88-3.76" transform="translate(0 0.03)"/><path class="cls-10" d="M231.85,168.59a4.38,4.38,0,0,0-3,2.88,5.6,5.6,0,0,0,.73,4.82,4.7,4.7,0,0,0,4.38,1.44,11.79,11.79,0,0,0,5.8-2.85c0-2.35,0-4.67,0-7-2.64,0-5.33-.16-7.87.72Zm-7.77-14.54a27,27,0,0,1,13.54-2.25,9.44,9.44,0,0,1,6.39,3.07,9,9,0,0,1,1.72,5.76v21H241c-.16-1-.31-2.1-.44-3.17a16.15,16.15,0,0,1-5.92,3.32,12.77,12.77,0,0,1-7.8-.37,6.88,6.88,0,0,1-4-4.51,9.52,9.52,0,0,1,1.7-8.68,12.4,12.4,0,0,1,7.39-3.73,40,40,0,0,1,7.74-.5c-.07-2,.31-4.13-.82-5.89a5.2,5.2,0,0,0-4.1-2,24.13,24.13,0,0,0-9.84,1.66c-.31-1.25-.59-2.51-.88-3.76" transform="translate(0 0.03)"/><path class="cls-8" d="M286.83,168.62a4.49,4.49,0,0,0-2.95,2.82,5.77,5.77,0,0,0,.69,4.85,4.81,4.81,0,0,0,4.48,1.44,11.44,11.44,0,0,0,5.77-2.94c-.07-2.29,0-4.61,0-6.92-2.66,0-5.38-.16-7.95.75Zm-7.68-14.57a27,27,0,0,1,13.6-2.25,9.47,9.47,0,0,1,6.23,2.94,9.33,9.33,0,0,1,1.85,6.2c0,6.93,0,13.82-.06,20.74-1.57-.06-3.14,0-4.7-.06-.16-1.07-.28-2.1-.47-3.14a14,14,0,0,1-7.8,3.67c-2.73.25-5.8-.09-7.93-2s-2.6-5.42-2-8.27a8.8,8.8,0,0,1,4.88-6c3.73-1.81,8-1.91,12.06-1.88-.06-1.91.29-3.94-.69-5.67a4.79,4.79,0,0,0-3.85-2.16A23.79,23.79,0,0,0,280,157.81c-.28-1.25-.59-2.51-.88-3.76" transform="translate(0 0.03)"/><path class="cls-10" d="M286.83,168.62a4.49,4.49,0,0,0-2.95,2.82,5.77,5.77,0,0,0,.69,4.85,4.81,4.81,0,0,0,4.48,1.44,11.44,11.44,0,0,0,5.77-2.94c-.07-2.29,0-4.61,0-6.92-2.66,0-5.38-.16-7.95.75Zm-7.68-14.57a27,27,0,0,1,13.6-2.25,9.47,9.47,0,0,1,6.23,2.94,9.33,9.33,0,0,1,1.85,6.2c0,6.93,0,13.82-.06,20.74-1.57-.06-3.14,0-4.7-.06-.16-1.07-.28-2.1-.47-3.14a14,14,0,0,1-7.8,3.67c-2.73.25-5.8-.09-7.93-2s-2.6-5.42-2-8.27a8.8,8.8,0,0,1,4.88-6c3.73-1.81,8-1.91,12.06-1.88-.06-1.91.29-3.94-.69-5.67a4.79,4.79,0,0,0-3.85-2.16A23.79,23.79,0,0,0,280,157.81c-.28-1.25-.59-2.51-.88-3.76" transform="translate(0 0.03)"/><path class="cls-8" d="M249.3,152.17h6.58c1.28,4.14,2.54,8.24,3.82,12.37.75,2.54,1.69,5.05,2.22,7.65.29,1.16.54,2.35.88,3.48a116.75,116.75,0,0,0,5.83-23.5H275a119.63,119.63,0,0,1-9.15,29.48h-7.52c-3-9.84-6-19.64-9.05-29.48Z" transform="translate(0 0.03)"/><path class="cls-10" d="M249.3,152.17h6.58c1.28,4.14,2.54,8.24,3.82,12.37.75,2.54,1.69,5.05,2.22,7.65.29,1.16.54,2.35.88,3.48a116.75,116.75,0,0,0,5.83-23.5H275a119.63,119.63,0,0,1-9.15,29.48h-7.52c-3-9.84-6-19.64-9.05-29.48Z" transform="translate(0 0.03)"/><polygon class="cls-8" points="302.08 151.63 301.31 151.63 301.31 151.35 303.18 151.35 303.18 151.63 302.41 151.63 302.41 153.89 302.08 153.89 302.08 151.63 302.08 151.63"/><polygon class="cls-10" points="302.08 151.63 301.31 151.63 301.31 151.35 303.18 151.35 303.18 151.63 302.41 151.63 302.41 153.89 302.08 153.89 302.08 151.63 302.08 151.63"/><path class="cls-8" d="M305.6,152.74c0-.35,0-.78,0-1.09h0c-.09.29-.19.61-.32,1l-.44,1.23h-.25l-.42-1.2c-.12-.36-.21-.69-.28-1h0c0,.32,0,.74-.05,1.12l-.07,1.09h-.31l.18-2.54H304l.44,1.23c.1.31.18.59.25.85h0c.07-.25.16-.53.27-.85l.45-1.23h.42l.15,2.54h-.32l-.06-1.12Z" transform="translate(0 0.03)"/><g class="cls-9"><path class="cls-10" d="M305.6,152.74c0-.35,0-.78,0-1.09h0c-.09.29-.19.61-.32,1l-.44,1.23h-.25l-.42-1.2c-.12-.36-.21-.69-.28-1h0c0,.32,0,.74-.05,1.12l-.07,1.09h-.31l.18-2.54H304l.44,1.23c.1.31.18.59.25.85h0c.07-.25.16-.53.27-.85l.45-1.23h.42l.15,2.54h-.32l-.06-1.12Z" transform="translate(0 0.03)"/></g></svg>